<?xml version="1.0" standalone="no"?>
<!DOCTYPE svg PUBLIC "-//W3C//DTD SVG 20010904//EN"
 "http://www.w3.org/TR/2001/REC-SVG-20010904/DTD/svg10.dtd">
<svg version="1.0" xmlns="http://www.w3.org/2000/svg"
 width="192.000000pt" height="192.000000pt" viewBox="0 0 192.000000 192.000000"
 preserveAspectRatio="xMidYMid meet">
<metadata>
Created by potrace 1.11, written by Peter Selinger 2001-2013
</metadata>
<g transform="translate(0.000000,192.000000) scale(0.100000,-0.100000)"
fill="#000000" stroke="none">
<path d="M850 1874 c-113 -17 -135 -22 -206 -49 -60 -23 -162 -72 -174 -85 -3
-3 -23 -17 -45 -31 -53 -35 -151 -131 -202 -199 -69 -93 -123 -204 -149 -305
-4 -16 -8 -34 -10 -40 -12 -44 -16 -74 -19 -170 -3 -127 14 -245 51 -343 139
-371 464 -602 854 -607 383 -5 711 214 861 574 65 157 83 370 45 551 -17 77
-59 178 -117 280 -43 75 -219 260 -248 260 -5 0 -14 6 -21 14 -6 8 -42 30 -78
49 -170 88 -374 126 -542 101z"/>
</g>
</svg>
